<svg width="36" height="36" viewBox="0 0 36 36" fill="none" xmlns="http://www.w3.org/2000/svg">
<path d="M9.12866 35.8727C6.98773 35.7753 5.82471 35.419 5.05115 35.1173C4.02615 34.7182 3.29539 34.2432 2.52611 33.475C1.75683 32.7067 1.28071 31.976 0.883764 30.951C0.582043 30.1774 0.225756 29.0144 0.128392 26.8735C0.0213986 24.5592 0 23.8648 0 18.0016C0 12.1384 0.0235385 11.4451 0.127322 9.12866C0.224686 6.98773 0.583113 5.82685 0.882694 5.05115C1.28178 4.02615 1.7579 3.29539 2.52504 2.52504C3.29325 1.75683 4.02401 1.27964 5.05008 0.882694C5.82364 0.580973 6.98666 0.224686 9.12759 0.127322C11.4429 0.0213986 12.1384 0 17.9995 0C23.8627 0 24.556 0.0235385 26.8724 0.127322C29.0133 0.224686 30.1742 0.583113 30.9499 0.882694C31.9749 1.27964 32.7057 1.75683 33.475 2.52504C34.2442 3.29325 34.7182 4.02508 35.1173 5.05008C35.419 5.82364 35.7753 6.98666 35.8727 9.12759C35.9786 11.444 36 12.1373 36 18.0005C36 23.8616 35.9786 24.5571 35.8727 26.8735C35.7753 29.0144 35.4169 30.1774 35.1173 30.951C34.7182 31.976 34.2432 32.7067 33.475 33.475C32.7067 34.2432 31.9749 34.7182 30.9499 35.1173C30.1764 35.419 29.0133 35.7753 26.8724 35.8727C24.5581 35.9786 23.8627 36 17.9995 36C12.1384 36 11.4429 35.9797 9.12866 35.8727Z" fill="url(#paint0_radial_2452_50)"/>
<path d="M13.9156 17.8725C13.9156 15.6869 15.6869 13.9147 17.8725 13.9147C20.0581 13.9147 21.8303 15.6869 21.8303 17.8725C21.8303 20.0581 20.0581 21.8303 17.8725 21.8303C15.6869 21.8303 13.9156 20.0581 13.9156 17.8725ZM11.7761 17.8725C11.7761 21.2395 14.5055 23.9689 17.8725 23.9689C21.2395 23.9689 23.9689 21.2395 23.9689 17.8725C23.9689 14.5055 21.2395 11.7761 17.8725 11.7761C14.5055 11.7761 11.7762 14.5053 11.7762 17.8725M22.7856 11.5344C22.7855 11.8162 22.869 12.0917 23.0254 12.326C23.1819 12.5604 23.4043 12.7431 23.6646 12.851C23.9249 12.9589 24.2113 12.9873 24.4877 12.9324C24.7641 12.8775 25.018 12.7419 25.2173 12.5428C25.4167 12.3436 25.5525 12.0898 25.6075 11.8135C25.6626 11.5371 25.6345 11.2506 25.5268 10.9903C25.4191 10.7299 25.2365 10.5073 25.0023 10.3507C24.7681 10.194 24.4927 10.1104 24.2109 10.1103H24.2103C23.8326 10.1104 23.4704 10.2605 23.2033 10.5275C22.9362 10.7946 22.786 11.1567 22.7856 11.5344ZM13.076 27.5365C11.9185 27.4838 11.2893 27.291 10.8712 27.1281C10.3169 26.9123 9.92144 26.6553 9.50562 26.24C9.08979 25.8248 8.8324 25.4297 8.61755 24.8754C8.45457 24.4575 8.26176 23.8281 8.20914 22.6706C8.15158 21.4191 8.14009 21.0432 8.14009 17.8727C8.14009 14.7022 8.15253 14.3273 8.20914 13.0748C8.26185 11.9173 8.45609 11.2892 8.61755 10.87C8.83335 10.3157 9.09036 9.9202 9.50562 9.50438C9.92087 9.08856 10.316 8.83116 10.8712 8.61632C11.2892 8.45333 11.9185 8.26052 13.076 8.2079C14.3275 8.15035 14.7034 8.13885 17.8725 8.13885C21.0416 8.13885 21.4179 8.15111 22.6704 8.2081C23.8279 8.26081 24.456 8.45504 24.8752 8.61651C25.4295 8.83135 25.825 9.08932 26.2408 9.50457C26.6566 9.91982 26.9131 10.3159 27.1289 10.8702C27.2919 11.2881 27.4847 11.9174 27.5373 13.075C27.5948 14.3275 27.6063 14.7024 27.6063 17.8729C27.6063 21.0434 27.5948 21.4183 27.5373 22.6708C27.4846 23.8283 27.2908 24.4575 27.1289 24.8756C26.9131 25.4299 26.6561 25.8254 26.2408 26.2402C25.8256 26.6551 25.4295 26.9125 24.8752 27.1283C24.4573 27.2913 23.8279 27.4841 22.6704 27.5367C21.419 27.5943 21.043 27.6058 17.8725 27.6058C14.702 27.6058 14.3271 27.5943 13.076 27.5367M12.9777 6.0719C11.7138 6.12946 10.8502 6.32987 10.0959 6.62335C9.31528 6.92643 8.65355 7.33304 7.99278 7.99278C7.332 8.65251 6.92643 9.31433 6.62335 10.0959C6.32987 10.8506 6.12946 11.7138 6.0719 12.9777C6.01339 14.2436 6 14.6483 6 17.8725C6 21.0967 6.01339 21.5014 6.0719 22.7673C6.12946 24.0313 6.32987 24.8944 6.62335 25.6491C6.92643 26.4297 7.33209 27.0928 7.99278 27.7522C8.65346 28.4117 9.31433 28.8177 10.0959 29.1216C10.8516 29.4151 11.7138 29.6155 12.9777 29.6731C14.2443 29.7307 14.6483 29.745 17.8725 29.745C21.0967 29.745 21.5014 29.7316 22.7673 29.6731C24.0313 29.6155 24.8944 29.4151 25.6491 29.1216C26.4297 28.8177 27.0914 28.412 27.7522 27.7522C28.413 27.0925 28.8177 26.4297 29.1216 25.6491C29.4151 24.8944 29.6165 24.0312 29.6731 22.7673C29.7307 21.5005 29.744 21.0967 29.744 17.8725C29.744 14.6483 29.7307 14.2436 29.6731 12.9777C29.6155 11.7137 29.4151 10.8502 29.1216 10.0959C28.8177 9.31528 28.412 8.65355 27.7522 7.99278C27.0925 7.332 26.4297 6.92643 25.65 6.62335C24.8944 6.32987 24.0312 6.12851 22.7682 6.0719C21.5022 6.01406 21.0976 6 17.8739 6C14.6502 6 14.2447 6.01339 12.9782 6.0719" fill="white"/>
<defs>
<radialGradient id="paint0_radial_2452_50" cx="0" cy="0" r="1" gradientUnits="userSpaceOnUse" gradientTransform="translate(2.32988 35.2114) scale(45.7066)">
<stop offset="0.09" stop-color="#FA8F21"/>
<stop offset="0.78" stop-color="#D82D7E"/>
</radialGradient>
</defs>
</svg>
