<svg width="36" height="36" viewBox="0 0 36 36" fill="none" xmlns="http://www.w3.org/2000/svg">
<rect x="0.817566" y="0.817566" width="34.3649" height="34.3649" rx="8" fill="url(#paint0_linear_2202_4193)"/>
<path d="M20.3947 19.4967C20.362 19.6417 20.188 19.8298 20.1553 20.0356C20.1272 20.2414 20.1235 20.4097 20.0954 20.6342C20.072 20.8541 19.8746 21.0776 19.8559 21.2928C19.8319 21.6529 19.8028 21.8915 19.442 21.8915H18.2232C18.0798 21.8915 17.9643 21.7752 17.9705 21.6319C17.9799 21.5196 17.9892 21.4051 17.9986 21.2881C18.0126 21.1712 18.0243 21.0589 18.0336 20.9514C18.0464 20.8495 18.0553 20.767 18.0603 20.7036C18.0611 20.6934 18.053 20.6848 18.0428 20.6848C18.0371 20.6848 18.0317 20.6875 18.0284 20.6922C17.885 20.8951 17.7347 21.0797 17.5776 21.246C17.4233 21.4144 17.2549 21.5594 17.0725 21.681C16.8947 21.8026 16.7006 21.8962 16.4901 21.9617C16.2797 22.0318 16.0481 22.0669 15.7956 22.0669C15.4495 22.0669 15.1384 22.0061 14.8625 21.8845C14.5912 21.7629 14.3596 21.5875 14.1679 21.3583C13.9761 21.1244 13.8288 20.8368 13.7259 20.4953C13.6277 20.1492 13.5785 19.7563 13.5785 19.3167C13.5785 18.6852 13.6838 18.0819 13.8943 17.5065C14.1047 16.9266 14.4088 16.4167 14.8063 15.9771C15.2086 15.5374 15.6973 15.1866 16.2727 14.9247C16.848 14.6628 17.5028 14.5318 18.2371 14.5318C18.4242 14.5318 18.6136 14.5412 18.8054 14.5599C19.0717 14.5852 19.3274 14.4139 19.3835 14.1523L19.8226 12.1059C19.9291 11.6098 20.3676 11.2554 20.875 11.2554C21.5631 11.2554 22.0745 11.8921 21.9261 12.5639L20.3947 19.4967ZM18.8884 16.5286C18.9321 16.3304 18.8108 16.132 18.609 16.1104C18.4827 16.0963 18.3587 16.0893 18.2371 16.0893C17.9144 16.0893 17.6314 16.1431 17.3882 16.2507C17.145 16.3583 16.9322 16.5009 16.7497 16.6787C16.572 16.8517 16.4223 17.0505 16.3007 17.275C16.1791 17.4949 16.0809 17.7194 16.006 17.9486C15.9359 18.1731 15.8844 18.3929 15.8517 18.608C15.8236 18.8185 15.8096 19.0033 15.8096 19.1623C15.8096 19.3354 15.8283 19.4967 15.8657 19.6464C15.9031 19.7914 15.9569 19.9177 16.0271 20.0253C16.1019 20.1328 16.1955 20.217 16.3077 20.2778C16.4247 20.3386 16.5603 20.369 16.7147 20.369C16.9719 20.369 17.2011 20.2942 17.4022 20.1445C17.608 19.9902 17.7881 19.7914 17.9424 19.5482C18.1015 19.3003 18.2348 19.0243 18.3423 18.7203C18.4499 18.4116 18.5388 18.1029 18.609 17.7942L18.8884 16.5286Z" fill="white"/>
<path d="M21.0389 23.2085C21 23.3907 20.8629 23.5369 20.6805 23.5749C20.5729 23.5982 20.456 23.6193 20.3297 23.638C20.2081 23.6614 20.0795 23.6777 19.9438 23.6871C19.8129 23.7011 19.6819 23.7082 19.551 23.7082C19.2376 23.7082 18.9686 23.6661 18.7441 23.5819C18.5243 23.5024 18.3419 23.3901 18.1969 23.2451C18.0519 23.0954 17.9443 22.92 17.8742 22.7189C17.8087 22.5131 17.7759 22.2886 17.7759 22.0454C17.7759 21.9425 17.7806 21.8279 17.79 21.7016C17.804 21.5753 17.8204 21.4444 17.8391 21.3087C17.8578 21.1684 17.8788 21.0281 17.9022 20.8878C17.9303 20.7428 17.9583 20.6048 17.9864 20.4738C18.0004 20.413 18.0308 20.2657 18.0776 20.0318C18.1291 19.7933 18.1922 19.5009 18.267 19.1548C18.3419 18.8087 18.4237 18.4252 18.5126 18.0042C18.6015 17.5786 18.6927 17.1459 18.7862 16.7063C18.8844 16.2619 18.978 15.8293 19.0669 15.4083C19.1557 14.9827 19.3021 14.6342 19.377 14.2881C19.4461 13.9684 19.5408 13.6853 19.5548 13.4479C19.5571 13.4095 19.5661 13.3462 19.5747 13.3088C19.6318 13.0606 19.8576 12.9129 20.1122 12.9153L20.5334 12.9193C21.2077 12.9257 21.7071 13.5484 21.5669 14.208L20.2455 20.4247C20.2081 20.5884 20.1684 20.7732 20.1263 20.979C20.0842 21.1801 20.0631 21.3555 20.0631 21.5052C20.0631 21.6829 20.1192 21.8068 20.2315 21.877C20.3438 21.9472 20.4724 21.9822 20.6174 21.9822C20.739 21.9822 20.8606 21.9705 20.9822 21.9472C21.1311 21.9141 21.2822 22.0447 21.2507 22.1939C21.2165 22.3557 21.1832 22.5166 21.1506 22.6768C21.1143 22.8521 21.0771 23.0293 21.0389 23.2085Z" fill="white"/>
<defs>
<linearGradient id="paint0_linear_2202_4193" x1="0.817566" y1="35.1824" x2="35.1824" y2="0.817566" gradientUnits="userSpaceOnUse">
<stop stop-color="#006AFF"/>
<stop offset="1" stop-color="#488BE9"/>
</linearGradient>
</defs>
</svg>
