<svg width="36" height="36" viewBox="0 0 36 36" fill="none" xmlns="http://www.w3.org/2000/svg">
<rect width="36" height="36" rx="18" fill="url(#paint0_linear_2452_51)"/>
<path fill-rule="evenodd" clip-rule="evenodd" d="M8.14814 17.81C13.3955 15.5239 16.8946 14.0167 18.6453 13.2885C23.6441 11.2093 24.6828 10.8481 25.3599 10.8362C25.5088 10.8336 25.8417 10.8705 26.0574 11.0455C26.2395 11.1932 26.2896 11.3928 26.3135 11.5329C26.3375 11.673 26.3674 11.9922 26.3436 12.2415C26.0728 15.0877 24.9006 21.9948 24.3043 25.1826C24.052 26.5315 23.5552 26.9838 23.0742 27.028C22.0289 27.1242 21.2351 26.3372 20.2227 25.6736C18.6385 24.6351 17.7435 23.9886 16.2057 22.9752C14.4286 21.8041 15.5806 21.1605 16.5934 20.1085C16.8585 19.8332 21.4641 15.6441 21.5532 15.2641C21.5644 15.2165 21.5747 15.0394 21.4695 14.9458C21.3642 14.8523 21.2089 14.8843 21.0968 14.9097C20.9379 14.9458 18.407 16.6186 13.5043 19.9281C12.7859 20.4214 12.1352 20.6617 11.5522 20.6491C10.9095 20.6352 9.67326 20.2857 8.75421 19.987C7.62696 19.6205 6.73104 19.4268 6.80906 18.8045C6.84969 18.4804 7.29605 18.1489 8.14814 17.81Z" fill="white"/>
<defs>
<linearGradient id="paint0_linear_2452_51" x1="18" y1="0" x2="18" y2="35.733" gradientUnits="userSpaceOnUse">
<stop stop-color="#2AABEE"/>
<stop offset="1" stop-color="#229ED9"/>
</linearGradient>
</defs>
</svg>
