<svg width="24" height="24" viewBox="0 0 24 24" fill="none" xmlns="http://www.w3.org/2000/svg">
<rect width="24" height="24" rx="4" fill="#257BF4"/>
<path d="M13.6725 13.0453C13.6496 13.1466 13.5281 13.2779 13.5052 13.4216C13.4856 13.5653 13.483 13.6829 13.4634 13.8397C13.4471 13.9933 13.3092 14.1494 13.2962 14.2997V14.2997C13.2794 14.5511 13.2591 14.7178 13.0071 14.7178H12.1559C12.0557 14.7178 11.9751 14.6366 11.9794 14.5365V14.5365C11.986 14.4581 11.9925 14.3781 11.999 14.2964C12.0088 14.2147 12.017 14.1363 12.0235 14.0612C12.0324 13.9901 12.0386 13.9324 12.0421 13.8882C12.0427 13.8811 12.037 13.875 12.0299 13.875V13.875C12.0259 13.875 12.0221 13.877 12.0198 13.8802C11.9197 14.0219 11.8147 14.1508 11.705 14.267C11.5972 14.3846 11.4796 14.4859 11.3522 14.5708C11.2281 14.6557 11.0926 14.721 10.9456 14.7668C10.7986 14.8158 10.6369 14.8403 10.4605 14.8403C10.2188 14.8403 10.0015 14.7978 9.8088 14.7129C9.61934 14.6279 9.45765 14.5055 9.32372 14.3454C9.18979 14.1821 9.08689 13.9812 9.01503 13.7427C8.94643 13.501 8.91213 13.2266 8.91213 12.9195C8.91213 12.4786 8.98563 12.0572 9.13262 11.6554C9.27962 11.2503 9.49194 10.8943 9.7696 10.5872C10.0505 10.2802 10.3919 10.0352 10.7937 9.85225C11.1955 9.66932 11.6528 9.57786 12.1656 9.57786C12.2963 9.57786 12.4286 9.58439 12.5625 9.59746V9.59746C12.7485 9.61517 12.927 9.49551 12.9662 9.31283L13.2729 7.88366C13.3473 7.53715 13.6535 7.28964 14.0079 7.28964V7.28964C14.4884 7.28964 14.8456 7.7343 14.742 8.20352L13.6725 13.0453ZM12.6204 10.9724C12.651 10.834 12.5663 10.6954 12.4253 10.6803V10.6803C12.3371 10.6705 12.2505 10.6656 12.1656 10.6656C11.9402 10.6656 11.7426 10.7032 11.5727 10.7783C11.4029 10.8534 11.2542 10.9531 11.1269 11.0772C11.0027 11.1981 10.8982 11.3369 10.8133 11.4937C10.7283 11.6472 10.6597 11.804 10.6075 11.9641C10.5585 12.1209 10.5225 12.2744 10.4997 12.4247C10.4801 12.5717 10.4703 12.7007 10.4703 12.8117C10.4703 12.9326 10.4833 13.0453 10.5095 13.1498C10.5356 13.2511 10.5732 13.3393 10.6222 13.4144C10.6744 13.4896 10.7398 13.5484 10.8182 13.5908C10.8998 13.6333 10.9946 13.6545 11.1024 13.6545C11.282 13.6545 11.4421 13.6023 11.5825 13.4977C11.7263 13.3899 11.852 13.2511 11.9598 13.0812C12.0709 12.9081 12.164 12.7154 12.2391 12.5031C12.3142 12.2875 12.3763 12.0719 12.4253 11.8563L12.6204 10.9724Z" fill="white"/>
<path d="M14.1223 15.6376C14.0952 15.7648 13.9994 15.8669 13.8721 15.8934V15.8934C13.7969 15.9097 13.7153 15.9244 13.6271 15.9375C13.5421 15.9538 13.4523 15.9653 13.3576 15.9718C13.2661 15.9816 13.1747 15.9865 13.0832 15.9865C12.8643 15.9865 12.6765 15.9571 12.5197 15.8983C12.3662 15.8428 12.2388 15.7644 12.1375 15.6631C12.0363 15.5586 11.9611 15.4361 11.9121 15.2956C11.8664 15.1519 11.8435 14.9951 11.8435 14.8252C11.8435 14.7534 11.8468 14.6734 11.8533 14.5852C11.8631 14.497 11.8746 14.4055 11.8876 14.3108C11.9007 14.2128 11.9154 14.1148 11.9317 14.0168C11.9513 13.9155 11.9709 13.8191 11.9905 13.7277C12.0003 13.6852 12.0216 13.5823 12.0542 13.419C12.0902 13.2524 12.1343 13.0482 12.1865 12.8065C12.2388 12.5648 12.296 12.2969 12.358 12.0029C12.4201 11.7057 12.4838 11.4035 12.5491 11.0965C12.6177 10.7862 12.683 10.484 12.7451 10.19C12.8072 9.89275 12.9094 9.6494 12.9617 9.40767C13.01 9.18435 13.0761 8.98668 13.0859 8.82084C13.0875 8.79403 13.0938 8.74987 13.0998 8.7237V8.7237C13.1396 8.55041 13.2973 8.4472 13.4751 8.4489L13.7693 8.4517C14.2403 8.45618 14.589 8.89104 14.4911 9.35174L13.5683 13.6934C13.5421 13.8077 13.5144 13.9367 13.485 14.0805C13.4556 14.2209 13.4409 14.3434 13.4409 14.448C13.4409 14.5721 13.4801 14.6587 13.5585 14.7076C13.6369 14.7566 13.7267 14.7811 13.828 14.7811C13.9129 14.7811 13.9978 14.773 14.0828 14.7566V14.7566C14.1867 14.7335 14.2923 14.8248 14.2703 14.929C14.2464 15.0419 14.2231 15.1544 14.2004 15.2662C14.175 15.3886 14.149 15.5124 14.1223 15.6376Z" fill="white"/>
</svg>
